<svg width="19" height="18" viewBox="0 0 19 18" fill="none" xmlns="http://www.w3.org/2000/svg">
<g clip-path="url(#clip0_339_28158)">
<path d="M9.25 3C10.0784 3 10.75 2.32843 10.75 1.5C10.75 0.671573 10.0784 0 9.25 0C8.42157 0 7.75 0.671573 7.75 1.5C7.75 2.32843 8.42157 3 9.25 3Z" fill="#727A90"/>
<path d="M9.25 10.5C10.0784 10.5 10.75 9.82842 10.75 9C10.75 8.17157 10.0784 7.5 9.25 7.5C8.42157 7.5 7.75 8.17157 7.75 9C7.75 9.82842 8.42157 10.5 9.25 10.5Z" fill="#727A90"/>
<path d="M9.25 18C10.0784 18 10.75 17.3284 10.75 16.5C10.75 15.6716 10.0784 15 9.25 15C8.42157 15 7.75 15.6716 7.75 16.5C7.75 17.3284 8.42157 18 9.25 18Z" fill="#727A90"/>
</g>
<defs>
<clipPath id="clip0_339_28158">
<rect width="18" height="18" fill="white" transform="translate(0.25)"/>
</clipPath>
</defs>
</svg>
