<svg width="17" height="16" viewBox="0 0 17 16" fill="none" xmlns="http://www.w3.org/2000/svg">
<g clip-path="url(#clip0_339_28174)">
<path d="M0.25 12.667C0.251059 13.5507 0.602588 14.398 1.22748 15.0228C1.85237 15.6477 2.6996 15.9993 3.58333 16.0003H12.9167C13.8004 15.9993 14.6476 15.6477 15.2725 15.0228C15.8974 14.398 16.2489 13.5507 16.25 12.667V6.66699H0.25V12.667ZM11.5833 9.66699C11.7811 9.66699 11.9745 9.72564 12.1389 9.83552C12.3034 9.9454 12.4315 10.1016 12.5072 10.2843C12.5829 10.467 12.6027 10.6681 12.5641 10.8621C12.5255 11.0561 12.4303 11.2342 12.2904 11.3741C12.1506 11.514 11.9724 11.6092 11.7784 11.6478C11.5844 11.6864 11.3834 11.6666 11.2007 11.5909C11.0179 11.5152 10.8617 11.387 10.7519 11.2226C10.642 11.0581 10.5833 10.8648 10.5833 10.667C10.5833 10.4018 10.6887 10.1474 10.8762 9.95988C11.0638 9.77235 11.3181 9.66699 11.5833 9.66699ZM8.25 9.66699C8.44778 9.66699 8.64112 9.72564 8.80557 9.83552C8.97002 9.9454 9.09819 10.1016 9.17388 10.2843C9.24957 10.467 9.26937 10.6681 9.23079 10.8621C9.1922 11.0561 9.09696 11.2342 8.95711 11.3741C8.81726 11.514 8.63907 11.6092 8.44509 11.6478C8.25111 11.6864 8.05004 11.6666 7.86732 11.5909C7.68459 11.5152 7.52841 11.387 7.41853 11.2226C7.30865 11.0581 7.25 10.8648 7.25 10.667C7.25 10.4018 7.35536 10.1474 7.54289 9.95988C7.73043 9.77235 7.98478 9.66699 8.25 9.66699ZM4.91667 9.66699C5.11445 9.66699 5.30779 9.72564 5.47224 9.83552C5.63669 9.9454 5.76486 10.1016 5.84055 10.2843C5.91623 10.467 5.93604 10.6681 5.89745 10.8621C5.85887 11.0561 5.76363 11.2342 5.62377 11.3741C5.48392 11.514 5.30574 11.6092 5.11176 11.6478C4.91778 11.6864 4.71671 11.6666 4.53398 11.5909C4.35126 11.5152 4.19508 11.387 4.0852 11.2226C3.97532 11.0581 3.91667 10.8648 3.91667 10.667C3.91667 10.4018 4.02202 10.1474 4.20956 9.95988C4.3971 9.77235 4.65145 9.66699 4.91667 9.66699Z" fill="#727A90"/>
<path d="M12.9167 1.33333H12.25V0.666667C12.25 0.489856 12.1798 0.320286 12.0547 0.195262C11.9297 0.0702379 11.7601 0 11.5833 0C11.4065 0 11.237 0.0702379 11.1119 0.195262C10.9869 0.320286 10.9167 0.489856 10.9167 0.666667V1.33333H5.58333V0.666667C5.58333 0.489856 5.5131 0.320286 5.38807 0.195262C5.26305 0.0702379 5.09348 0 4.91667 0C4.73986 0 4.57029 0.0702379 4.44526 0.195262C4.32024 0.320286 4.25 0.489856 4.25 0.666667V1.33333H3.58333C2.6996 1.33439 1.85237 1.68592 1.22748 2.31081C0.602588 2.93571 0.251059 3.78294 0.25 4.66667L0.25 5.33333H16.25V4.66667C16.2489 3.78294 15.8974 2.93571 15.2725 2.31081C14.6476 1.68592 13.8004 1.33439 12.9167 1.33333Z" fill="#727A90"/>
</g>
<defs>
<clipPath id="clip0_339_28174">
<rect width="16" height="16" fill="white" transform="translate(0.25)"/>
</clipPath>
</defs>
</svg>
